<?xml version="1.0" encoding="iso-8859-1"?>
<!-- Generator: Adobe Illustrator 19.0.0, SVG Export Plug-In . SVG Version: 6.00 Build 0)  -->
<svg version="1.1" id="Capa_1" xmlns="http://www.w3.org/2000/svg" xmlns:xlink="http://www.w3.org/1999/xlink" x="0px" y="0px"
	 viewBox="0 0 512 512" style="enable-background:new 0 0 512 512;" xml:space="preserve">
<g>
	<g>
		<g>
			<path d="M412,120c33.084,0,60-26.916,60-60S445.084,0,412,0c-33.084,0-60,26.916-60,60S378.916,120,412,120z M412,40
				c11.028,0,20,8.972,20,20s-8.972,20-20,20s-20-8.972-20-20S400.972,40,412,40z"/>
			<path d="M292,472H40V327h212c11.046,0,20-8.954,20-20c0-11.046-8.954-20-20-20H76v-83c0-11.028,8.972-20,20-20h80
				c11.028,0,20,8.972,20,20v23c0,11.046,8.954,20,20,20s20-8.954,20-20v-23c0-33.084-26.916-60-60-60H96c-33.084,0-60,26.916-60,60
				v83H20c-11.046,0-20,8.954-20,20v205h292c11.046,0,20-8.954,20-20C312,480.954,303.046,472,292,472z"/>
			<path d="M141,121c33.084,0,60-26.916,60-60S174.084,1,141,1S81,27.916,81,61S107.916,121,141,121z M141,41
				c11.028,0,20,8.972,20,20s-8.972,20-20,20s-20-8.972-20-20S129.972,41,141,41z"/>
			<path d="M452,139h-80c-33.084,0-60,26.916-60,60v109c0,26.075,16.719,48.319,40,56.573V492c0,11.046,8.954,20,20,20
				c11.046,0,20-8.954,20-20V348c0-11.046-8.954-20-20-20c-11.028,0-20-8.972-20-20V199c0-11.028,8.972-20,20-20h80
				c11.028,0,20,8.972,20,20v109c0,11.028-8.972,20-20,20c-11.046,0-20,8.954-20,20v144c0,11.046,8.954,20,20,20
				c11.046,0,20-8.954,20-20V364.573c23.281-8.255,40-30.498,40-56.573V199C512,165.916,485.084,139,452,139z"/>
		</g>
	</g>
</g>
<g>
</g>
<g>
</g>
<g>
</g>
<g>
</g>
<g>
</g>
<g>
</g>
<g>
</g>
<g>
</g>
<g>
</g>
<g>
</g>
<g>
</g>
<g>
</g>
<g>
</g>
<g>
</g>
<g>
</g>
</svg>
