<?xml version="1.0"?>
<svg xmlns="http://www.w3.org/2000/svg" height="512px" viewBox="0 0 64 64" width="512px" class=""><g><g id="outline"><path d="m41.618 18h-1.618v-2h2v-10h-38v10h2v2h-4v14h2v26h56v-26h2v-10h-18.382zm-3.618 0h-2v-2h2zm-4 0h-22v-2h22zm-28-10h34v6h-34zm2 8h2v2h-2zm-4 4h36.382l5 10h-12.382v-4h-20v4h-9zm22 36v-6h12v6zm14 0v-8h-16v8h-2v-10h20v10zm18 0h-14v-12h-24v12h-14v-24h9v-4h16v4h27zm2-32v6h-12.382l-3-6z" data-original="#000000" class="active-path" data-old_color="#000000" fill="#5F7D95"/><path d="m56 26h2v2h-2z" data-original="#000000" class="active-path" data-old_color="#000000" fill="#5F7D95"/><path d="m48 26h2v2h-2z" data-original="#000000" class="active-path" data-old_color="#000000" fill="#5F7D95"/><path d="m52 26h2v2h-2z" data-original="#000000" class="active-path" data-old_color="#000000" fill="#5F7D95"/><path d="m26 30h2v2h-2z" data-original="#000000" class="active-path" data-old_color="#000000" fill="#5F7D95"/><path d="m18 30h2v2h-2z" data-original="#000000" class="active-path" data-old_color="#000000" fill="#5F7D95"/><path d="m22 30h2v2h-2z" data-original="#000000" class="active-path" data-old_color="#000000" fill="#5F7D95"/><path d="m46 44v10h10v-10zm4 8h-2v-6h2zm4-6v6h-2v-6z" data-original="#000000" class="active-path" data-old_color="#000000" fill="#5F7D95"/><path d="m8 44v10h10v-10zm4 8h-2v-6h2zm4-6v6h-2v-6z" data-original="#000000" class="active-path" data-old_color="#000000" fill="#5F7D95"/><path d="m8 34v8h48v-8zm11 6h-9v-4h9zm8 0h-6v-4h6zm8 0h-6v-4h6zm8 0h-6v-4h6zm11-4v4h-9v-4z" data-original="#000000" class="active-path" data-old_color="#000000" fill="#5F7D95"/><path d="m6 26h5v2h-5z" data-original="#000000" class="active-path" data-old_color="#000000" fill="#5F7D95"/><path d="m6 22h6v2h-6z" data-original="#000000" class="active-path" data-old_color="#000000" fill="#5F7D95"/><path d="m35 26h6v2h-6z" data-original="#000000" class="active-path" data-old_color="#000000" fill="#5F7D95"/><path d="m34 22h6v2h-6z" data-original="#000000" class="active-path" data-old_color="#000000" fill="#5F7D95"/><path d="m14 22h2v2h-2z" data-original="#000000" class="active-path" data-old_color="#000000" fill="#5F7D95"/><path d="m18 22h2v2h-2z" data-original="#000000" class="active-path" data-old_color="#000000" fill="#5F7D95"/><path d="m22 22h2v2h-2z" data-original="#000000" class="active-path" data-old_color="#000000" fill="#5F7D95"/><path d="m26 22h2v2h-2z" data-original="#000000" class="active-path" data-old_color="#000000" fill="#5F7D95"/><path d="m30 22h2v2h-2z" data-original="#000000" class="active-path" data-old_color="#000000" fill="#5F7D95"/></g></g> </svg>
