<svg id="Capa_1" enable-background="new 0 0 512 512" height="512" viewBox="0 0 512 512" width="512" xmlns="http://www.w3.org/2000/svg"><path d="m255.81 443.108c-4.232 0-8.098-2.792-9.46-6.789-1.329-3.899-.06-8.331 3.126-10.943 3.282-2.691 8.01-2.99 11.616-.763 3.494 2.157 5.343 6.421 4.528 10.445-.935 4.618-5.087 8.05-9.81 8.05z"/><path d="m449.972 263.626h-132c-5.522 0-10-4.478-10-10s4.478-10 10-10h132c5.522 0 10 4.478 10 10s-4.478 10-10 10z"/><path d="m449.972 355.165h-132c-5.522 0-10-4.478-10-10s4.478-10 10-10h132c5.522 0 10 4.478 10 10s-4.478 10-10 10z"/><path d="m423.305 309.395h-105.333c-5.522 0-10-4.478-10-10s4.478-10 10-10h105.333c5.522 0 10 4.478 10 10s-4.478 10-10 10z"/><path d="m243.058 223.614h-164.157c-14.817 0-26.873 12.056-26.873 26.873v111.408c0 5.522 4.478 10 10 10h.849c4.292 14.074 17.397 24.342 32.857 24.342 15.459 0 28.564-10.268 32.856-24.342h64.779c4.292 14.074 17.397 24.342 32.856 24.342s28.565-10.268 32.857-24.342h.849c5.522 0 10-4.478 10-10v-111.408c0-14.818-12.056-26.873-26.873-26.873zm-49.689 128.281h-64.779c-4.292-14.074-17.397-24.342-32.856-24.342-9.184 0-17.538 3.624-23.706 9.517v-24.382h177.902v24.382c-6.168-5.893-14.522-9.517-23.706-9.517-15.458 0-28.563 10.268-32.855 24.342zm-54.132-59.207v-49.074h43.484v49.074zm110.694-42.201v42.201h-47.209v-49.074h40.336c3.79 0 6.873 3.083 6.873 6.873zm-177.903 0c0-3.79 3.083-6.873 6.873-6.873h40.336v49.074h-47.209zm23.706 125.75c-7.908 0-14.342-6.434-14.342-14.342s6.434-14.342 14.342-14.342c7.907 0 14.341 6.434 14.341 14.342s-6.433 14.342-14.341 14.342zm130.491 0c-7.907 0-14.341-6.434-14.341-14.342s6.434-14.342 14.341-14.342c7.908 0 14.342 6.434 14.342 14.342s-6.434 14.342-14.342 14.342z"/><path d="m473.515 68.892h-435.03c-21.22 0-38.485 17.265-38.485 38.486v297.24c0 21.222 17.265 38.486 38.485 38.486h172.309c5.522 0 10-4.478 10-10s-4.478-10-10-10h-172.309c-10.193 0-18.485-8.293-18.485-18.486v-208.76h472v208.761c0 10.193-8.292 18.486-18.485 18.486h-172.309c-5.522 0-10 4.478-10 10s4.478 10 10 10h172.309c21.221 0 38.485-17.265 38.485-38.486v-297.24c0-21.222-17.265-38.487-38.485-38.487zm-435.03 20h435.029c10.193 0 18.485 8.293 18.485 18.486v14.878h-471.999v-14.878c0-10.193 8.292-18.486 18.485-18.486zm-18.485 86.966v-33.602h472v33.602z"/></svg>